<svg width="37" height="44" viewBox="0 0 37 44" fill="none" xmlns="http://www.w3.org/2000/svg">
<path d="M3.438 8.224V6.46C3.438 6.34 3.444 6.232 3.456 6.136C3.48 6.028 3.51 5.926 3.546 5.83C3.486 5.914 3.414 5.992 3.33 6.064C3.258 6.124 3.174 6.184 3.078 6.244L1.53 7.126L1.134 6.46L2.682 5.56C2.79 5.5 2.898 5.452 3.006 5.416C3.114 5.38 3.222 5.356 3.33 5.344C3.21 5.332 3.096 5.308 2.988 5.272C2.892 5.236 2.79 5.182 2.682 5.11L1.116 4.21L1.512 3.526L3.078 4.426C3.174 4.486 3.264 4.558 3.348 4.642C3.444 4.714 3.522 4.798 3.582 4.894C3.534 4.786 3.498 4.678 3.474 4.57C3.45 4.462 3.438 4.348 3.438 4.228V2.446H4.23V4.21C4.23 4.33 4.218 4.444 4.194 4.552C4.182 4.66 4.152 4.762 4.104 4.858C4.176 4.774 4.248 4.702 4.32 4.642C4.404 4.57 4.5 4.498 4.608 4.426L6.156 3.544L6.552 4.21L5.004 5.11C4.896 5.182 4.794 5.236 4.698 5.272C4.602 5.308 4.5 5.332 4.392 5.344C4.5 5.356 4.602 5.38 4.698 5.416C4.794 5.44 4.896 5.488 5.004 5.56L6.552 6.46L6.156 7.144L4.608 6.244C4.5 6.172 4.404 6.106 4.32 6.046C4.236 5.974 4.158 5.89 4.086 5.794C4.134 5.89 4.17 5.992 4.194 6.1C4.218 6.208 4.23 6.322 4.23 6.442V8.224H3.438ZM15.6201 9.61V10.276L8.65406 13.894V12.742C8.65406 12.55 8.76206 12.394 8.97806 12.274L13.0101 10.222C13.1301 10.162 13.2561 10.108 13.3881 10.06C13.5321 10.012 13.6761 9.97 13.8201 9.934C13.6761 9.91 13.5321 9.874 13.3881 9.826C13.2561 9.778 13.1301 9.724 13.0101 9.664L8.97806 7.612C8.76206 7.492 8.65406 7.336 8.65406 7.144V5.992L15.6201 9.61ZM21.7193 8.224V6.46C21.7193 6.34 21.7253 6.232 21.7373 6.136C21.7613 6.028 21.7913 5.926 21.8273 5.83C21.7673 5.914 21.6953 5.992 21.6113 6.064C21.5393 6.124 21.4553 6.184 21.3593 6.244L19.8113 7.126L19.4153 6.46L20.9633 5.56C21.0713 5.5 21.1793 5.452 21.2873 5.416C21.3953 5.38 21.5033 5.356 21.6113 5.344C21.4913 5.332 21.3773 5.308 21.2693 5.272C21.1733 5.236 21.0713 5.182 20.9633 5.11L19.3973 4.21L19.7933 3.526L21.3593 4.426C21.4553 4.486 21.5453 4.558 21.6293 4.642C21.7253 4.714 21.8033 4.798 21.8633 4.894C21.8153 4.786 21.7793 4.678 21.7553 4.57C21.7313 4.462 21.7193 4.348 21.7193 4.228V2.446H22.5113V4.21C22.5113 4.33 22.4993 4.444 22.4753 4.552C22.4633 4.66 22.4333 4.762 22.3853 4.858C22.4573 4.774 22.5293 4.702 22.6013 4.642C22.6853 4.57 22.7813 4.498 22.8893 4.426L24.4373 3.544L24.8333 4.21L23.2853 5.11C23.1773 5.182 23.0753 5.236 22.9793 5.272C22.8833 5.308 22.7813 5.332 22.6733 5.344C22.7813 5.356 22.8833 5.38 22.9793 5.416C23.0753 5.44 23.1773 5.488 23.2853 5.56L24.8333 6.46L24.4373 7.144L22.8893 6.244C22.7813 6.172 22.6853 6.106 22.6013 6.046C22.5173 5.974 22.4393 5.89 22.3673 5.794C22.4153 5.89 22.4513 5.992 22.4753 6.1C22.4993 6.208 22.5113 6.322 22.5113 6.442V8.224H21.7193ZM33.9013 9.61V10.276L26.9353 13.894V12.742C26.9353 12.55 27.0433 12.394 27.2593 12.274L31.2913 10.222C31.4113 10.162 31.5373 10.108 31.6693 10.06C31.8133 10.012 31.9573 9.97 32.1013 9.934C31.9573 9.91 31.8133 9.874 31.6693 9.826C31.5373 9.778 31.4113 9.724 31.2913 9.664L27.2593 7.612C27.0433 7.492 26.9353 7.336 26.9353 7.144V5.992L33.9013 9.61ZM3.438 30.224V28.46C3.438 28.34 3.444 28.232 3.456 28.136C3.48 28.028 3.51 27.926 3.546 27.83C3.486 27.914 3.414 27.992 3.33 28.064C3.258 28.124 3.174 28.184 3.078 28.244L1.53 29.126L1.134 28.46L2.682 27.56C2.79 27.5 2.898 27.452 3.006 27.416C3.114 27.38 3.222 27.356 3.33 27.344C3.21 27.332 3.096 27.308 2.988 27.272C2.892 27.236 2.79 27.182 2.682 27.11L1.116 26.21L1.512 25.526L3.078 26.426C3.174 26.486 3.264 26.558 3.348 26.642C3.444 26.714 3.522 26.798 3.582 26.894C3.534 26.786 3.498 26.678 3.474 26.57C3.45 26.462 3.438 26.348 3.438 26.228V24.446H4.23V26.21C4.23 26.33 4.218 26.444 4.194 26.552C4.182 26.66 4.152 26.762 4.104 26.858C4.176 26.774 4.248 26.702 4.32 26.642C4.404 26.57 4.5 26.498 4.608 26.426L6.156 25.544L6.552 26.21L5.004 27.11C4.896 27.182 4.794 27.236 4.698 27.272C4.602 27.308 4.5 27.332 4.392 27.344C4.5 27.356 4.602 27.38 4.698 27.416C4.794 27.44 4.896 27.488 5.004 27.56L6.552 28.46L6.156 29.144L4.608 28.244C4.5 28.172 4.404 28.106 4.32 28.046C4.236 27.974 4.158 27.89 4.086 27.794C4.134 27.89 4.17 27.992 4.194 28.1C4.218 28.208 4.23 28.322 4.23 28.442V30.224H3.438ZM15.6201 31.61V32.276L8.65406 35.894V34.742C8.65406 34.55 8.76206 34.394 8.97806 34.274L13.0101 32.222C13.1301 32.162 13.2561 32.108 13.3881 32.06C13.5321 32.012 13.6761 31.97 13.8201 31.934C13.6761 31.91 13.5321 31.874 13.3881 31.826C13.2561 31.778 13.1301 31.724 13.0101 31.664L8.97806 29.612C8.76206 29.492 8.65406 29.336 8.65406 29.144V27.992L15.6201 31.61ZM21.7193 30.224V28.46C21.7193 28.34 21.7253 28.232 21.7373 28.136C21.7613 28.028 21.7913 27.926 21.8273 27.83C21.7673 27.914 21.6953 27.992 21.6113 28.064C21.5393 28.124 21.4553 28.184 21.3593 28.244L19.8113 29.126L19.4153 28.46L20.9633 27.56C21.0713 27.5 21.1793 27.452 21.2873 27.416C21.3953 27.38 21.5033 27.356 21.6113 27.344C21.4913 27.332 21.3773 27.308 21.2693 27.272C21.1733 27.236 21.0713 27.182 20.9633 27.11L19.3973 26.21L19.7933 25.526L21.3593 26.426C21.4553 26.486 21.5453 26.558 21.6293 26.642C21.7253 26.714 21.8033 26.798 21.8633 26.894C21.8153 26.786 21.7793 26.678 21.7553 26.57C21.7313 26.462 21.7193 26.348 21.7193 26.228V24.446H22.5113V26.21C22.5113 26.33 22.4993 26.444 22.4753 26.552C22.4633 26.66 22.4333 26.762 22.3853 26.858C22.4573 26.774 22.5293 26.702 22.6013 26.642C22.6853 26.57 22.7813 26.498 22.8893 26.426L24.4373 25.544L24.8333 26.21L23.2853 27.11C23.1773 27.182 23.0753 27.236 22.9793 27.272C22.8833 27.308 22.7813 27.332 22.6733 27.344C22.7813 27.356 22.8833 27.38 22.9793 27.416C23.0753 27.44 23.1773 27.488 23.2853 27.56L24.8333 28.46L24.4373 29.144L22.8893 28.244C22.7813 28.172 22.6853 28.106 22.6013 28.046C22.5173 27.974 22.4393 27.89 22.3673 27.794C22.4153 27.89 22.4513 27.992 22.4753 28.1C22.4993 28.208 22.5113 28.322 22.5113 28.442V30.224H21.7193ZM33.9013 31.61V32.276L26.9353 35.894V34.742C26.9353 34.55 27.0433 34.394 27.2593 34.274L31.2913 32.222C31.4113 32.162 31.5373 32.108 31.6693 32.06C31.8133 32.012 31.9573 31.97 32.1013 31.934C31.9573 31.91 31.8133 31.874 31.6693 31.826C31.5373 31.778 31.4113 31.724 31.2913 31.664L27.2593 29.612C27.0433 29.492 26.9353 29.336 26.9353 29.144V27.992L33.9013 31.61Z" fill="#7B76A6" fill-opacity="0.3"/>
</svg>
