<svg width="223" height="36" viewBox="0 0 223 36" fill="none" xmlns="http://www.w3.org/2000/svg">
<path d="M0 34.3856V29.1095H4.18448V7.82321H0V2.54712H16.3741C18.3147 2.54712 19.9976 2.88067 21.4227 3.54776C22.8782 4.18453 24.0001 5.10936 24.7885 6.32225C25.6072 7.50482 26.0166 8.92998 26.0166 10.5977V11.0525C26.0166 12.508 25.7437 13.7057 25.1979 14.6457C24.6521 15.5554 24.0001 16.268 23.2421 16.7835C22.5143 17.2686 21.8169 17.6173 21.1498 17.8296V18.6483C21.8169 18.8302 22.5447 19.1789 23.333 19.6944C24.1214 20.1796 24.7885 20.8921 25.3343 21.8321C25.9104 22.7721 26.1985 24.0002 26.1985 25.5163V25.9711C26.1985 27.7298 25.7892 29.2459 24.9705 30.5195C24.1518 31.7627 23.0147 32.7179 21.5592 33.3849C20.134 34.052 18.4663 34.3856 16.556 34.3856H0ZM10.1883 28.9276H15.8283C17.1321 28.9276 18.1782 28.6092 18.9666 27.9724C19.7853 27.3356 20.1947 26.426 20.1947 25.2434V24.7886C20.1947 23.606 19.8005 22.6963 19.0121 22.0596C18.2237 21.4228 17.1624 21.1044 15.8283 21.1044H10.1883V28.9276ZM10.1883 15.6464H15.7373C16.9805 15.6464 17.9963 15.328 18.7847 14.6912C19.6034 14.0545 20.0128 13.1751 20.0128 12.0532V11.5983C20.0128 10.4461 19.6186 9.56674 18.8302 8.9603C18.0418 8.32353 17.0108 8.00514 15.7373 8.00514H10.1883V15.6464Z" fill="black"/>
<path d="M31.1136 34.3856V2.54712H44.2128C46.2141 2.54712 47.9728 2.95647 49.4889 3.77517C51.0354 4.56356 52.2331 5.68548 53.0821 7.14096C53.9615 8.59643 54.4011 10.3248 54.4011 12.3261V12.9628C54.4011 14.9338 53.9463 16.6622 53.0366 18.148C52.1573 19.6034 50.9444 20.7405 49.3979 21.5592C47.8818 22.3476 46.1535 22.7418 44.2128 22.7418H37.1174V34.3856H31.1136ZM37.1174 17.2838H43.6215C45.0467 17.2838 46.1989 16.8896 47.0783 16.1012C47.9576 15.3128 48.3973 14.2364 48.3973 12.8719V12.417C48.3973 11.0525 47.9576 9.9761 47.0783 9.18771C46.1989 8.39933 45.0467 8.00514 43.6215 8.00514H37.1174V17.2838Z" fill="black"/>
<path d="M67.3529 35.8385C66.2799 35.8385 65.3976 35.4927 64.7061 34.8012C64.0385 34.1336 63.7046 33.2633 63.7046 32.1902V21.1025C63.7046 20.411 63.3827 20.0653 62.7389 20.0653H58.6257V15.7732H62.7389C63.3827 15.7732 63.7046 15.4275 63.7046 14.736V3.64823C63.7046 2.57522 64.0385 1.70489 64.7061 1.03724C65.3976 0.345747 66.2799 0 67.3529 0H73.4332V3.86283H69.0339C68.3901 3.86283 68.0682 4.2205 68.0682 4.93584V14.736C68.0682 15.5467 67.8059 16.2263 67.2813 16.7747C66.7806 17.3231 66.1129 17.5973 65.2784 17.5973H64.7061V18.2411H65.2784C66.1129 18.2411 66.7806 18.5154 67.2813 19.0638C67.8059 19.6122 68.0682 20.2918 68.0682 21.1025V30.9026C68.0682 31.618 68.3901 31.9756 69.0339 31.9756H73.4332V35.8385H67.3529Z" fill="#9F92FF"/>
<path d="M213.627 -9.99451e-05C214.7 -9.98513e-05 215.582 0.345649 216.273 1.03714C216.941 1.70479 217.275 2.57512 217.275 3.64813L217.275 14.7359C217.275 15.4274 217.597 15.7731 218.241 15.7731L222.354 15.7731L222.354 20.0652L218.241 20.0652C217.597 20.0652 217.275 20.4109 217.275 21.1024L217.275 32.1902C217.275 33.2632 216.941 34.1335 216.273 34.8011C215.582 35.4926 214.7 35.8384 213.627 35.8384L207.546 35.8384L207.546 31.9755L211.946 31.9755C212.589 31.9755 212.911 31.6179 212.911 30.9025L212.911 21.1024C212.911 20.2917 213.174 19.6121 213.698 19.0637C214.199 18.5153 214.867 18.241 215.701 18.241L216.273 18.241L216.273 17.5972L215.701 17.5972C214.867 17.5972 214.199 17.323 213.698 16.7746C213.174 16.2262 212.911 15.5466 212.911 14.7359L212.911 4.93574C212.911 4.2204 212.589 3.86273 211.946 3.86273L207.546 3.86273L207.546 -0.000100477L213.627 -9.99451e-05Z" fill="#9F92FF"/>
<path d="M82.2383 34.3856V2.54712H88.2421V15.6919H100.068V2.54712H106.072V34.3856H100.068V21.1499H88.2421V34.3856H82.2383Z" fill="black"/>
<path d="M118.563 35.0224C116.955 35.0224 115.515 34.7494 114.242 34.2036C112.968 33.6275 111.952 32.8088 111.194 31.7475C110.466 30.6559 110.103 29.3369 110.103 27.7905C110.103 26.244 110.466 24.9553 111.194 23.9244C111.952 22.8631 112.983 22.0747 114.287 21.5592C115.621 21.0134 117.137 20.7405 118.835 20.7405H125.021V19.467C125.021 18.4057 124.688 17.5415 124.021 16.8744C123.353 16.177 122.292 15.8283 120.837 15.8283C119.412 15.8283 118.35 16.1619 117.653 16.8289C116.955 17.4657 116.501 18.2996 116.288 19.3305L111.012 17.5567C111.376 16.4044 111.952 15.3583 112.741 14.4183C113.559 13.448 114.636 12.6748 115.97 12.0987C117.335 11.4922 118.987 11.189 120.928 11.189C123.899 11.189 126.249 11.9319 127.978 13.4177C129.706 14.9035 130.57 17.0564 130.57 19.8763V28.2908C130.57 29.2005 130.995 29.6553 131.844 29.6553H133.663V34.3856H129.842C128.721 34.3856 127.796 34.1127 127.068 33.5669C126.34 33.0211 125.976 32.2933 125.976 31.3837V31.3382H125.112C124.991 31.7021 124.718 32.1872 124.293 32.7937C123.869 33.3698 123.202 33.8853 122.292 34.3401C121.383 34.7949 120.139 35.0224 118.563 35.0224ZM119.563 30.383C121.17 30.383 122.474 29.9434 123.475 29.064C124.506 28.1543 125.021 26.9566 125.021 25.4708V25.016H119.245C118.184 25.016 117.35 25.2434 116.743 25.6982C116.137 26.1531 115.834 26.7898 115.834 27.6085C115.834 28.4272 116.152 29.0943 116.789 29.6098C117.425 30.1253 118.35 30.383 119.563 30.383Z" fill="black"/>
<path d="M147.296 35.0224C145.113 35.0224 143.127 34.5675 141.338 33.6578C139.579 32.7482 138.184 31.4292 137.153 29.7008C136.122 27.9724 135.607 25.8802 135.607 23.4241V22.7873C135.607 20.3312 136.122 18.2389 137.153 16.5106C138.184 14.7822 139.579 13.4632 141.338 12.5535C143.127 11.6438 145.113 11.189 147.296 11.189C149.449 11.189 151.299 11.568 152.845 12.3261C154.391 13.0841 155.635 14.1303 156.575 15.4644C157.545 16.7683 158.182 18.2541 158.485 19.9218L152.936 21.1044C152.815 20.1947 152.542 19.376 152.117 18.6483C151.693 17.9205 151.086 17.3444 150.298 16.9199C149.54 16.4954 148.585 16.2831 147.433 16.2831C146.28 16.2831 145.234 16.5409 144.294 17.0564C143.384 17.5415 142.657 18.2844 142.111 19.2851C141.595 20.2554 141.338 21.4531 141.338 22.8783V23.3331C141.338 24.7582 141.595 25.9711 142.111 26.9718C142.657 27.9421 143.384 28.685 144.294 29.2005C145.234 29.6856 146.28 29.9282 147.433 29.9282C149.161 29.9282 150.465 29.4885 151.344 28.6092C152.254 27.6995 152.83 26.5169 153.072 25.0615L158.621 26.3805C158.227 27.9876 157.545 29.4582 156.575 30.7924C155.635 32.0962 154.391 33.1272 152.845 33.8853C151.299 34.6433 149.449 35.0224 147.296 35.0224Z" fill="black"/>
<path d="M161.928 34.3856V2.54712H167.658V20.1492H168.477L175.936 11.8258H183.396L172.98 22.7418L183.76 34.3856H176.391L168.477 25.4253H167.658V34.3856H161.928Z" fill="black"/>
<path d="M194.927 35.0224C191.986 35.0224 189.575 34.3856 187.695 33.112C185.815 31.8385 184.678 30.0192 184.284 27.654L189.56 26.2895C189.772 27.3508 190.121 28.1847 190.606 28.7911C191.122 29.3976 191.743 29.8372 192.471 30.1101C193.229 30.3527 194.048 30.474 194.927 30.474C196.261 30.474 197.247 30.2466 197.884 29.7917C198.52 29.3066 198.839 28.7153 198.839 28.0179C198.839 27.3205 198.536 26.7898 197.929 26.426C197.323 26.0318 196.352 25.7134 195.018 25.4708L193.745 25.2434C192.168 24.9402 190.728 24.5308 189.424 24.0153C188.12 23.4695 187.074 22.7266 186.285 21.7866C185.497 20.8467 185.103 19.6338 185.103 18.148C185.103 15.9041 185.922 14.1909 187.559 13.0083C189.196 11.7954 191.349 11.189 194.018 11.189C196.534 11.189 198.627 11.75 200.294 12.8719C201.962 13.9938 203.054 15.4644 203.569 17.2838L198.248 18.9212C198.005 17.7689 197.505 16.9502 196.747 16.4651C196.019 15.9799 195.109 15.7373 194.018 15.7373C192.926 15.7373 192.092 15.9344 191.516 16.3286C190.94 16.6925 190.652 17.208 190.652 17.8751C190.652 18.6028 190.955 19.1486 191.561 19.5125C192.168 19.846 192.987 20.1038 194.018 20.2857L195.291 20.5131C196.989 20.8163 198.52 21.2257 199.885 21.7412C201.28 22.2263 202.371 22.9389 203.16 23.8789C203.978 24.7886 204.388 26.0318 204.388 27.6085C204.388 29.9737 203.524 31.8082 201.795 33.112C200.097 34.3856 197.808 35.0224 194.927 35.0224Z" fill="black"/>
</svg>
